<svg id="Group_9133" data-name="Group 9133" xmlns="http://www.w3.org/2000/svg" xmlns:xlink="http://www.w3.org/1999/xlink" width="105.923" height="88.414" viewBox="0 0 105.923 88.414">
  <defs>
    <clipPath id="clip-path">
      <rect id="Rectangle_2671" data-name="Rectangle 2671" width="105.923" height="88.414" fill="none"/>
    </clipPath>
  </defs>
  <path id="Path_1626" data-name="Path 1626" d="M153.989,342.917l6.275.048-.029-25.295,12.295.027.029,25.295,5.892-.055-.059-30.77-24.448.089Z" transform="translate(-131.832 -267.33)" fill="#453491"/>
  <g id="Group_9132" data-name="Group 9132">
    <g id="Group_9131" data-name="Group 9131" clip-path="url(#clip-path)">
      <path id="Path_1627" data-name="Path 1627" d="M361.746,311.077l-16.554.057.03,5.476,10.951-.061-.038,5.744-.01-.007,0,.847-.045,6.923a7.634,7.634,0,0,1-2.541,5.685A5.736,5.736,0,1,1,352,326.222l-.032-5.728a11.219,11.219,0,1,0,4.048,20.254l-.009,1.315,5.765-.089Z" transform="translate(-289.858 -266.397)" fill="#453491"/>
      <path id="Path_1628" data-name="Path 1628" d="M563.111,322.574c.183-8.771-6.192-15.921-14.238-15.971a13.974,13.974,0,0,0-9.165,3.414v-2.646l-5.731-.038-.1,43.575,5.858.073-.008-15.695a13.533,13.533,0,0,0,8.488,3.076c8.047.051,14.719-7.018,14.9-15.787m-14.775,9.761a9.066,9.066,0,0,1-8.62-7.545l0-4.276c.912-4.52,4.642-7.91,9.034-7.883,4.992.032,8.947,4.468,8.833,9.908s-4.253,9.827-9.245,9.8" transform="translate(-457.191 -262.566)" fill="#453491"/>
      <path id="Path_1629" data-name="Path 1629" d="M19.531,326.929a.447.447,0,0,0,0-.047,7.7,7.7,0,0,0-.428-3.3.048.048,0,0,0-.006-.015,9.8,9.8,0,0,0-4.384-5.38,10.493,10.493,0,0,0-1.512-.925,30.716,30.716,0,0,1-5.833-3.4c-.175-.139-.3-.243-.394-.318-2.079-2.481.629-4.486,1.271-4.724,2.832-.962,4.294,1.393,4.86,2.673l3.681-1.518.041-.018.936-.386.127-.07s0,0,0,0l.062-.027a8.819,8.819,0,0,0-.985-2.083c-.022-.037-.042-.074-.066-.111a7.841,7.841,0,0,0-5-3.749l-.008,0c-.15-.049-.3-.094-.455-.135A8.973,8.973,0,0,0,.285,309.412,8.269,8.269,0,0,0,.1,312.841a8.832,8.832,0,0,0,2.084,4.434.008.008,0,0,0,0,.005,9.325,9.325,0,0,0,1.453,1.349,9.433,9.433,0,0,0,1.117.72,48.089,48.089,0,0,0,5.383,2.994c.391.2.727.366.985.509a9.363,9.363,0,0,1,.795.576c2.874,2.34,1.254,4.462.157,5.557a5.647,5.647,0,0,1-1.29.8,4.141,4.141,0,0,1-2.025-.039,3.952,3.952,0,0,1-3-3.846L.978,327.954l-.015.007-.7.3a9.543,9.543,0,0,0,2.192,3.9,10.182,10.182,0,0,0,4.865,2.929,9.584,9.584,0,0,0,11.922-6.429,8.8,8.8,0,0,0,.286-1.733" transform="translate(0 -259.529)" fill="#453491"/>
      <path id="Path_1630" data-name="Path 1630" d="M98.219,3.026l-5.537.062-.039,13.451-.009,2.693-.024,8.328,0,1.369c0,.065-.01.129-.016.192v0a8.811,8.811,0,0,1-7.154,7.938,8.158,8.158,0,0,1-.886.1c-.168.011-.339.016-.511.016a8.207,8.207,0,0,1-1.535-.144A7.619,7.619,0,0,1,77.6,28.127H72.056A13.066,13.066,0,0,0,85,42.921h.014A13.068,13.068,0,0,0,98.082,29.906a.018.018,0,0,0,0-.009c.023-.225.043-.451.057-.679.022-.326.032-.656.033-.988,0-.3-.009-.6-.027-.9Z" transform="translate(-61.61 -2.591)" fill="#453491"/>
      <path id="Path_1631" data-name="Path 1631" d="M511.171,26.374c-.15-8.127-6.315-14.692-13.773-14.662a12.543,12.543,0,0,0-7.873,2.83L489.569,0,484.14.053V40.431l5.311-.023.006-2.452a12.956,12.956,0,0,0,8.486,3.185c7.456-.028,13.38-6.639,13.229-14.768m-13.5,9.289c-4.689,0-8.49-4.174-8.488-9.323s3.8-9.32,8.491-9.319,8.49,4.175,8.488,9.323-3.8,9.32-8.491,9.319" transform="translate(-414.602 0.001)" fill="#453491"/>
      <path id="Path_1632" data-name="Path 1632" d="M300.228,94.929c0,8.119-6.318,14.7-14.107,14.7s-14.1-6.585-14.1-14.7,6.318-14.7,14.107-14.7,14.1,6.585,14.1,14.7" transform="translate(-232.951 -68.702)" fill="#453491"/>
      <path id="Path_1633" data-name="Path 1633" d="M311.394,131.737a2.86,2.86,0,0,0-.612.992,6.3,6.3,0,0,0-.315,3.673,7.1,7.1,0,0,0,12.1,3.735,4.263,4.263,0,0,0,.642-.867,8.894,8.894,0,0,1,3.606-3.429,1.315,1.315,0,0,0,.419-.311.838.838,0,0,0-.489-1.377,3.8,3.8,0,0,0-1.2.055,21.519,21.519,0,0,0-3.825,1.187c-.079.03-.158.059-.235.093a.426.426,0,0,1-.549-.138,5.174,5.174,0,0,1-1.263-4.034,8.663,8.663,0,0,1,1.962-4.7.882.882,0,0,0-1.2-1.266,7.821,7.821,0,0,0-2.325,2.672,7.97,7.97,0,0,0-.829,5.256c.054.3-.062.5-.312.547s-.414-.1-.467-.388a8.693,8.693,0,0,1,.477-4.872c.045-.113.09-.227.148-.372-.079.023-.135.034-.186.056a4.435,4.435,0,0,0-2.5,5.454c.019.058.041.116.057.175a.406.406,0,0,1-.237.509.381.381,0,0,1-.512-.252,5.06,5.06,0,0,1-.322-1.782,5.194,5.194,0,0,1,1.167-3.308c.036-.046.071-.094.106-.141l-.037-.063a5.222,5.222,0,0,0-.747.4,4.376,4.376,0,0,0-1.854,3.545,10.177,10.177,0,0,0,.1,1.239c.031.287-.073.48-.315.526s-.416-.1-.47-.385a6.365,6.365,0,0,1-.02-2.2c.009-.057.018-.114.036-.228" transform="translate(-265.759 -107.21)" fill="#fff"/>
      <path id="Path_1634" data-name="Path 1634" d="M382.153,150.041c-.051.119-.091.192-.115.269-.174.557-.353,1.114-.513,1.675a.913.913,0,0,0,0,.407,3.855,3.855,0,0,0,.8,1.761.855.855,0,0,0,1.433-.024.819.819,0,0,0,.135-.538,7,7,0,0,0-1.309-3.126,5.159,5.159,0,0,0-.422-.426" transform="translate(-326.705 -128.491)" fill="#fff"/>
      <path id="Path_1635" data-name="Path 1635" d="M425.183,174.615c.3.081.6.166.9.242a.418.418,0,1,0,.2-.808c-.6-.153-1.2-.3-1.8-.446-.307-.073-.51.042-.569.3s.077.433.367.512l.882.238.011-.039" transform="translate(-363.024 -148.65)" fill="#fff"/>
      <path id="Path_1636" data-name="Path 1636" d="M423.055,143.913c-.058-.128-.085-.307-.186-.379a.5.5,0,0,0-.434-.067c-.6.335-1.187.7-1.769,1.068a.414.414,0,0,0,.443.7q.87-.515,1.725-1.053a1.283,1.283,0,0,0,.221-.265" transform="translate(-360.103 -122.838)" fill="#fff"/>
      <path id="Path_1637" data-name="Path 1637" d="M402.231,124.479c-.082.3-.168.608-.244.914a.416.416,0,0,0,.289.559.411.411,0,0,0,.508-.344q.235-.917.454-1.838c.07-.3-.042-.5-.288-.557s-.44.079-.517.363-.16.595-.24.892l.039.01" transform="translate(-344.232 -105.505)" fill="#fff"/>
    </g>
  </g>
</svg>
